<svg width="24" height="26" viewBox="0 0 24 26" fill="black" xmlns="http://www.w3.org/2000/svg">
<path d="M16.6667 15.8333H15.6133L15.24 15.4508C16.5467 13.8358 17.3333 11.7392 17.3333 9.45833C17.3333 4.3725 13.4533 0.25 8.66667 0.25C3.88 0.25 0 4.3725 0 9.45833C0 14.5442 3.88 18.6667 8.66667 18.6667C10.8133 18.6667 12.7867 17.8308 14.3067 16.4425L14.6667 16.8392V17.9583L21.3333 25.0275L23.32 22.9167L16.6667 15.8333ZM8.66667 15.8333C5.34667 15.8333 2.66667 12.9858 2.66667 9.45833C2.66667 5.93083 5.34667 3.08333 8.66667 3.08333C11.9867 3.08333 14.6667 5.93083 14.6667 9.45833C14.6667 12.9858 11.9867 15.8333 8.66667 15.8333Z" fill="black"/>
</svg>
